# xmcd
# 
# Track frame offsets:
#     150
#     13152
#     34462
#     53867
#     75765
#     98117
#     117750
#     138992
#     161422
# 
# Disc length: 2497
# 
# Revision: 14
# Processed by: cddbd v1.5.2PL0 Copyright (c) Steve Scherf et al.
# Submitted via: fre:ac v1.0.17
# 
DISCID=6709bf09
DTITLE=鬼束ちひろ - Sugar High
DYEAR=2002
DGENRE=JPop
TTITLE0=NOT YOUR GOD
TTITLE1=声
TTITLE2=Rebel Luck
TTITLE3=Tiger in my Love
TTITLE4=Castle・imitation (album version)
TTITLE5=漂流の羽根
TTITLE6=砂の盾
TTITLE7=King of Solitude
TTITLE8=BORDERLINE
EXTD=
EXTT0=
EXTT1=
EXTT2=
EXTT3=
EXTT4=
EXTT5=
EXTT6=
EXTT7=
EXTT8=
PLAYORDER=
